<?xml version="1.0" standalone="no"?>
<!DOCTYPE svg PUBLIC "-//W3C//DTD SVG 20010904//EN"
 "http://www.w3.org/TR/2001/REC-SVG-20010904/DTD/svg10.dtd">
<svg version="1.0" xmlns="http://www.w3.org/2000/svg"
 width="1044.000000pt" height="1044.000000pt" viewBox="0 0 1044.000000 1044.000000"
 preserveAspectRatio="xMidYMid meet">
<metadata>
Created by potrace 1.14, written by Peter Selinger 2001-2017
</metadata>
<g transform="translate(0.000000,1044.000000) scale(0.100000,-0.100000)"
fill="#000000" stroke="none">
<path d="M4495 7860 c-22 -5 -51 -11 -65 -13 -14 -3 -37 -10 -52 -16 -16 -6
-28 -8 -28 -6 0 7 -143 -45 -157 -57 -7 -6 -13 -8 -13 -4 0 3 -21 -6 -47 -21
-27 -14 -57 -31 -68 -37 -11 -6 -22 -13 -25 -16 -3 -3 -30 -21 -60 -40 -114
-71 -219 -158 -350 -290 -146 -148 -160 -163 -240 -260 -30 -36 -57 -67 -60
-70 -3 -3 -24 -30 -48 -60 -23 -30 -48 -62 -55 -70 -8 -8 -23 -28 -33 -45 -10
-16 -29 -41 -41 -55 -12 -14 -33 -41 -46 -60 -57 -80 -162 -235 -166 -244 -2
-6 -12 -18 -21 -28 -9 -10 -23 -31 -31 -46 -8 -15 -17 -29 -20 -32 -6 -6 -135
-215 -175 -285 -15 -27 -32 -51 -36 -53 -4 -2 -8 -8 -8 -14 0 -6 -15 -36 -34
-67 -18 -31 -48 -82 -65 -113 -17 -32 -44 -82 -60 -110 -16 -29 -51 -96 -78
-148 -28 -52 -67 -126 -88 -165 -21 -38 -60 -110 -87 -160 -27 -49 -53 -97
-58 -105 -5 -8 -21 -40 -37 -70 -15 -30 -30 -57 -33 -60 -3 -3 -14 -23 -25
-45 -11 -21 -57 -106 -103 -189 -45 -82 -82 -153 -82 -157 0 -5 -4 -9 -8 -9
-4 0 -13 -12 -20 -27 -15 -33 -23 -47 -121 -213 -41 -69 -79 -128 -85 -132 -6
-4 -7 -8 -2 -8 5 0 2 -8 -6 -17 -8 -10 -34 -49 -58 -88 -24 -38 -48 -73 -54
-77 -6 -4 -8 -8 -4 -8 6 0 -187 -288 -201 -300 -3 -3 -19 -23 -34 -46 -15 -22
-36 -50 -47 -62 -11 -12 -20 -23 -20 -26 0 -13 -161 -182 -208 -219 -83 -65
-174 -123 -229 -148 -35 -15 -63 -26 -63 -24 0 2 -20 -4 -45 -15 -25 -11 -49
-20 -53 -20 -50 -3 -59 -52 -25 -130 18 -41 110 -130 133 -130 9 0 20 -3 24
-7 28 -28 264 -44 324 -22 12 5 36 10 53 11 17 1 33 6 35 10 3 4 13 8 23 8 20
0 203 91 225 112 8 7 28 24 45 37 41 31 132 123 173 173 18 23 40 48 48 57 9
9 31 39 50 66 19 28 38 52 41 55 3 3 25 34 49 70 24 36 47 67 52 68 4 2 8 8 8
13 0 9 49 88 60 99 4 3 37 58 76 123 38 65 77 130 86 145 19 31 28 46 88 157
24 44 46 82 49 85 3 3 17 28 31 55 13 28 46 87 71 133 26 45 44 82 41 82 -4 0
-2 4 3 8 6 4 19 25 30 47 11 22 22 42 25 45 3 3 16 25 28 50 72 137 136 256
141 260 3 3 18 30 34 60 15 30 42 82 60 115 18 33 51 94 74 135 22 41 52 95
65 120 14 25 47 86 73 135 27 50 58 108 70 130 12 22 36 66 54 98 74 135 99
181 189 337 180 314 399 668 432 700 3 3 10 13 15 22 39 66 199 258 291 351
95 96 219 197 242 197 5 0 13 6 16 13 3 6 3 1 0 -13 -6 -21 -24 -66 -64 -155
-5 -11 -21 -49 -35 -85 -14 -36 -30 -74 -35 -85 -24 -55 -126 -326 -171 -455
-46 -130 -111 -324 -113 -335 -1 -5 -18 -62 -38 -125 -37 -117 -69 -226 -74
-246 -1 -6 -10 -38 -19 -70 -9 -33 -19 -70 -22 -83 -2 -13 -8 -32 -13 -41 -5
-10 -7 -20 -4 -23 3 -3 2 -12 -2 -19 -5 -7 -9 -18 -10 -25 -1 -7 -10 -42 -19
-79 -17 -69 -22 -91 -31 -134 -3 -13 -13 -60 -23 -105 -10 -44 -24 -109 -30
-145 -7 -36 -16 -81 -21 -100 -4 -19 -14 -69 -20 -110 -6 -41 -14 -86 -16
-100 -6 -28 -9 -52 -18 -120 -3 -25 -8 -61 -11 -80 -3 -19 -7 -60 -10 -90 -3
-30 -7 -71 -10 -90 -25 -185 -25 -868 0 -990 3 -14 8 -41 11 -60 18 -113 21
-129 46 -190 61 -155 167 -232 327 -239 124 -5 209 62 424 339 7 8 48 69 91
135 43 66 86 131 95 145 10 14 42 67 72 118 30 51 61 106 70 121 10 15 33 57
52 92 19 35 44 82 57 104 12 22 47 87 78 145 56 107 101 192 177 335 24 44 81
152 127 240 125 237 206 392 246 465 19 36 65 124 102 195 38 72 82 155 98
185 17 30 44 80 60 110 16 30 38 71 49 90 11 19 35 62 53 95 157 285 377 649
496 820 8 11 33 48 56 83 23 34 46 62 50 62 4 0 8 5 8 11 0 6 10 24 23 39 12
15 31 40 42 56 39 54 149 188 192 232 23 25 43 47 43 48 0 8 83 84 90 84 5 0
2 -17 -7 -37 -8 -21 -20 -49 -26 -63 -6 -14 -11 -27 -11 -30 -5 -20 -41 -107
-48 -115 -4 -5 -8 -15 -8 -23 0 -7 -8 -32 -18 -55 -11 -23 -34 -80 -51 -127
-18 -47 -37 -94 -42 -105 -19 -44 -169 -426 -169 -431 0 -3 -6 -20 -14 -37
-13 -31 -50 -127 -52 -137 0 -3 -6 -18 -13 -35 -7 -16 -14 -34 -15 -40 -2 -5
-6 -17 -9 -25 -23 -53 -54 -150 -49 -150 4 0 3 -4 -3 -8 -5 -4 -41 -101 -79
-217 -37 -115 -72 -221 -77 -235 -11 -33 -50 -161 -54 -180 -2 -8 -16 -55 -30
-105 -22 -75 -96 -343 -110 -395 -13 -53 -84 -361 -89 -390 -3 -19 -9 -46 -11
-60 -3 -14 -8 -38 -10 -55 -2 -16 -7 -48 -10 -70 -22 -148 -28 -240 -28 -385
0 -122 6 -245 13 -245 1 0 4 -13 6 -28 20 -118 91 -266 174 -360 77 -86 206
-165 298 -182 15 -3 38 -7 52 -10 67 -15 237 -20 309 -10 42 6 105 23 140 37
14 6 28 12 31 13 110 37 253 150 323 255 20 30 41 60 45 65 8 9 17 38 29 85 2
8 4 45 6 81 4 125 -40 153 -159 101 -170 -75 -212 -85 -335 -85 -118 1 -176
49 -228 188 -10 27 -24 123 -22 150 0 6 2 39 5 75 2 36 5 65 6 65 0 0 3 16 4
35 4 39 16 124 22 155 2 11 7 34 10 50 6 34 44 221 50 248 2 9 6 27 9 40 11
52 29 128 51 212 13 50 35 132 48 183 13 52 26 95 28 97 2 3 26 -3 53 -11 28
-8 57 -17 65 -19 8 -2 51 -13 95 -25 44 -11 89 -22 100 -24 11 -2 65 -15 120
-29 55 -14 127 -30 160 -36 33 -6 71 -13 85 -16 25 -6 43 -9 115 -20 22 -3 51
-8 65 -10 112 -21 424 -21 588 0 23 3 61 7 85 10 23 3 49 7 57 10 8 3 32 7 52
9 20 3 54 9 75 15 21 6 50 12 65 15 34 6 196 54 223 66 11 5 31 12 43 15 13 4
49 19 80 33 32 14 59 26 62 26 10 2 205 108 210 115 3 3 31 23 62 43 58 38
183 142 228 189 48 50 105 116 125 144 11 15 29 39 41 54 27 33 114 182 142
242 45 99 85 230 97 324 18 133 -8 351 -52 437 -7 15 -13 29 -12 30 3 12 -83
190 -101 208 -3 3 -11 17 -18 31 -8 14 -23 37 -35 52 -12 14 -38 45 -57 68
-64 79 -190 200 -276 263 -21 17 -41 32 -44 35 -3 4 -45 33 -95 66 -157 104
-374 207 -645 306 -27 10 -184 58 -212 65 -42 10 -55 13 -87 23 -19 6 -37 9
-39 6 -3 -2 -12 0 -21 4 -9 5 -32 12 -52 15 -20 3 -42 8 -50 10 -8 3 -30 7
-49 10 -19 3 -46 8 -60 10 -38 7 -176 25 -255 33 -96 9 -336 9 -415 -1 -36 -4
-83 -9 -105 -12 -22 -2 -51 -6 -65 -9 -14 -3 -35 -8 -46 -11 -12 -2 -53 -14
-90 -26 -38 -12 -72 -21 -76 -20 -5 1 -8 -2 -8 -8 0 -5 -8 -10 -18 -10 -10 0
-23 -5 -30 -12 -7 -7 -12 -8 -12 -3 0 6 -3 6 -8 0 -4 -5 -25 -19 -47 -30 -40
-19 -179 -109 -202 -129 -6 -6 -23 -20 -37 -31 -142 -110 -329 -302 -476 -490
-30 -38 -58 -74 -63 -80 -4 -5 -32 -44 -62 -85 -30 -41 -58 -79 -63 -85 -13
-16 -196 -295 -228 -348 -40 -67 -44 -74 -83 -142 -19 -33 -37 -62 -40 -65 -4
-3 -15 -23 -26 -45 -11 -22 -25 -47 -31 -55 -6 -8 -27 -44 -46 -80 -20 -36
-44 -81 -55 -100 -11 -19 -44 -82 -73 -140 -30 -58 -62 -117 -73 -132 -10 -16
-16 -28 -13 -28 3 0 -8 -22 -24 -50 -16 -27 -26 -50 -22 -50 4 0 2 -4 -4 -8
-6 -4 -40 -63 -75 -132 -35 -69 -68 -128 -74 -132 -5 -4 -7 -8 -2 -8 4 0 -3
-17 -15 -37 -13 -21 -90 -173 -173 -338 -82 -165 -152 -302 -155 -305 -3 -3
-16 -30 -30 -60 -14 -30 -27 -57 -30 -60 -3 -3 -29 -52 -58 -110 -85 -170
-256 -480 -265 -480 -9 0 -3 112 19 355 3 39 7 81 9 95 7 65 16 138 20 170 3
19 8 55 10 80 3 25 10 70 15 100 5 30 11 71 14 90 3 19 8 46 10 60 3 14 15 81
26 150 12 69 25 141 30 160 5 19 11 46 14 60 2 14 10 48 16 75 6 28 14 61 16
75 5 25 42 183 59 250 3 11 7 28 9 38 2 9 18 69 36 132 17 63 33 125 36 138 2
13 11 42 19 66 8 23 16 51 18 62 2 10 6 26 10 34 3 8 12 38 20 65 16 53 85
280 93 305 3 8 5 16 5 17 0 1 9 26 20 55 11 29 22 60 24 68 2 8 22 67 45 130
22 63 50 142 61 175 11 32 27 72 35 87 8 15 14 30 14 33 1 7 9 30 36 101 13
33 24 63 24 67 0 3 5 18 12 34 6 15 12 30 13 33 1 3 5 12 8 20 17 40 62 165
94 260 58 172 55 240 -17 309 -40 39 -107 76 -157 87 -6 1 -34 7 -63 13 -58
12 -165 13 -225 1z m3499 -704 c49 -5 110 -13 176 -22 54 -8 229 -53 251 -64
10 -6 19 -8 19 -6 0 11 253 -106 270 -124 3 -3 21 -17 40 -30 35 -23 138 -125
174 -171 20 -27 74 -136 81 -165 2 -11 8 -35 13 -54 7 -30 9 -184 2 -200 -1
-3 -2 -8 -1 -12 2 -17 -54 -178 -82 -233 -88 -176 -235 -338 -419 -462 -79
-53 -168 -103 -168 -95 0 4 -4 2 -8 -3 -12 -18 -132 -72 -227 -104 -98 -32
-120 -37 -255 -56 -25 -3 -58 -8 -75 -10 -156 -23 -698 -22 -953 1 -83 8 -133
12 -155 13 -10 1 -15 6 -12 12 4 6 22 60 41 120 19 60 50 160 70 222 19 61 37
119 39 127 2 8 4 16 5 18 2 1 3 5 5 10 1 4 4 14 8 22 10 28 78 225 82 240 2 8
45 134 95 280 170 493 202 585 223 651 l22 67 65 11 c36 6 99 14 140 17 41 3
76 7 78 9 5 4 399 -3 456 -9z"/>
</g>
</svg>
